<?xml version="1.0" encoding="utf-8"?>
<!-- Generator: Adobe Illustrator 25.4.1, SVG Export Plug-In . SVG Version: 6.00 Build 0)  -->
<svg version="1.1" id="Layer_1" xmlns="http://www.w3.org/2000/svg" xmlns:xlink="http://www.w3.org/1999/xlink" x="0px" y="0px"
	 viewBox="0 0 1211.83 807.89" style="enable-background:new 0 0 1211.83 807.89;" xml:space="preserve">
<style type="text/css">
	.st0{fill:#37113C;}
	.st1{fill:url(#SVGID_1_);}
	.st2{fill:url(#SVGID_00000147208786179279669270000009234378214881662133_);}
	.st3{fill:url(#SVGID_00000105410442423284748140000011610431304804047283_);}
	.st4{fill:url(#SVGID_00000098931694643652867260000011764134989763683247_);}
	.st5{fill:url(#SVGID_00000085215055857369489470000005710016408177486993_);}
	.st6{fill:url(#SVGID_00000025444801479756937460000003822944367843382672_);}
	.st7{fill:url(#SVGID_00000069371386783046355730000016429069742494624958_);}
	.st8{fill:url(#SVGID_00000075121901504509110720000006242853286655760791_);}
	.st9{fill:url(#SVGID_00000013168623267100937000000018125529326327414200_);}
	.st10{fill:url(#SVGID_00000171682044987414229070000012240573437335377557_);}
	.st11{fill:url(#SVGID_00000169537352667864019380000008747918128857984695_);}
	.st12{fill:url(#SVGID_00000139999625041694217910000004729034273688249736_);}
	.st13{fill:url(#SVGID_00000110464287137404772340000008988880438138013847_);}
	.st14{fill:url(#SVGID_00000172422590136680184120000006579961060629789594_);}
	.st15{fill:url(#SVGID_00000046301218423955054620000007987021609310877627_);}
	.st16{fill:url(#SVGID_00000137119048026182177740000005918192070511180451_);}
	.st17{fill:url(#SVGID_00000014632435537100307730000008797523932673811843_);}
	.st18{fill:url(#SVGID_00000175324629530736721230000010035581549369590659_);}
	.st19{fill:url(#SVGID_00000090256644127358146550000007223861050837198524_);}
	.st20{fill:url(#SVGID_00000141448647476731332800000012908306211967107224_);}
	.st21{fill:url(#SVGID_00000011010619309780346420000006723794674779480722_);}
	.st22{fill:url(#SVGID_00000071530532425910708260000007153313140697363387_);}
	.st23{filter:url(#Adobe_OpacityMaskFilter);}
	.st24{fill:url(#SVGID_00000077291020968705759740000004559442319628257408_);}
	
		.st25{mask:url(#SVGID_00000039093777231566880030000005731882370234012815_);fill:url(#SVGID_00000143589345019576686010000005296779817009696401_);}
</style>
<rect x="-40.74" y="-56.4" class="st0" width="1293.32" height="932.36"/>
<linearGradient id="SVGID_1_" gradientUnits="userSpaceOnUse" x1="222.7368" y1="282.7029" x2="993.6844" y2="351.3654">
	<stop  offset="0.5328" style="stop-color:#FB953D"/>
	<stop  offset="0.5802" style="stop-color:#6188E4;stop-opacity:0.9"/>
	<stop  offset="0.8223" style="stop-color:#6188E4"/>
	<stop  offset="1" style="stop-color:#72D1EE"/>
</linearGradient>
<path class="st1" d="M654.92,163.37c0.02-0.02,0.02-0.04,0.02-0.04l-12.76,10.8l-39.68,33.61L464,319.23l76.77,166.26l37.49-157.31
	l-48.16,24.5l-8.54-16.82l83.26-42.34l-54.56,226.12L435.41,318.38l152.52-122.4l61.27-51.59l36.88-31.04l-69.93,297.22
	l-15.27,64.88l-0.25,1.05l200.4-156.15l-88.3-152.94l-44.99,198.84l56.1-43.83l-27.53-19.14l23.8-26.65l-19.69-23.11l14.34-12.23
	l30.38,35.63l-20.58,23.04l31.04,21.57l-117.82,92.05l66.69-295.47l123.04,205.51L570.03,524.26l12.92-54.9l11.45-48.7
	L654.92,163.37z"/>
<linearGradient id="SVGID_00000070833085677511692230000016238796848454059428_" gradientUnits="userSpaceOnUse" x1="222.7368" y1="282.7029" x2="993.6844" y2="351.3654">
	<stop  offset="0.501" style="stop-color:#FB9B3E"/>
	<stop  offset="0.565" style="stop-color:#6188E4;stop-opacity:0.9"/>
	<stop  offset="0.8223" style="stop-color:#6188E4"/>
	<stop  offset="1" style="stop-color:#72D1EE"/>
</linearGradient>
<path style="fill:url(#SVGID_00000070833085677511692230000016238796848454059428_);" d="M654.92,163.37
	c0.02-0.02,0.02-0.04,0.02-0.04l-12.76,10.8l-39.68,33.61L464,319.23l76.77,166.26l37.49-157.31l-48.16,24.5l-8.54-16.82
	l83.26-42.34l-54.56,226.12L435.41,318.38l152.52-122.4l61.27-51.59l36.88-31.04l-69.93,297.22l-15.27,64.88l-0.25,1.05
	l200.4-156.15l-88.3-152.94l-44.99,198.84l56.1-43.83l-27.53-19.14l23.8-26.65l-19.69-23.11l14.34-12.23l30.38,35.63l-20.58,23.04
	l31.04,21.57l-117.82,92.05l66.69-295.47l123.04,205.51L570.03,524.26l12.92-54.9l11.45-48.7L654.92,163.37z"/>
<linearGradient id="SVGID_00000005252870121953166960000010381172409392686736_" gradientUnits="userSpaceOnUse" x1="421.1892" y1="286.3521" x2="689.4505" y2="328.4323">
	<stop  offset="0.4453" style="stop-color:#FCBF42"/>
	<stop  offset="0.9424" style="stop-color:#FB953D"/>
</linearGradient>
<path style="fill:url(#SVGID_00000005252870121953166960000010381172409392686736_);" d="M686.08,113.34l-36.88,31.04l-61.27,51.59
	l-152.52,122.4l114.86,201.26l54.56-226.12l-83.26,42.34l8.54,16.82l48.16-24.5l-37.49,157.31L464,319.23l138.5-111.48l39.68-33.61
	l12.76-10.8c0,0,0,0.02-0.02,0.04l-60.53,257.29l-11.45,48.7l-12.92,54.9l21.5-16.76c3.84-13.57,7.63-27.14,11.39-40.71l13.24-56.23
	L686.08,113.34z"/>
<g>
	
		<linearGradient id="SVGID_00000014611992068276015040000009352488402740553903_" gradientUnits="userSpaceOnUse" x1="412.5613" y1="536.4572" x2="412.5613" y2="633.7123">
		<stop  offset="0.335" style="stop-color:#FB953D"/>
		<stop  offset="1" style="stop-color:#FB953D"/>
	</linearGradient>
	<path style="fill:url(#SVGID_00000014611992068276015040000009352488402740553903_);" d="M457.82,589.87
		c0,25.59-19.7,43.07-43.24,43.07c-26.21,0-47.26-21.06-47.26-46.81c0-25.76,21.11-46.92,46.87-46.92
		c11.21,0.06,24.85,5.72,33.06,13.7l-5.77,8.55c-7.08-7.02-18.17-11.94-27.34-11.94c-19.25,0-36.34,15.96-36.34,36.62
		c0,20.04,16.13,36.4,37.19,36.4c17.83,0,31.87-11.94,31.87-28.08c0-0.68,0-1.3-0.06-1.81h-32.72v-9.28h43.36
		C457.59,584.84,457.82,587.27,457.82,589.87z"/>
	
		<linearGradient id="SVGID_00000084517723604526804790000000301052586693748110_" gradientUnits="userSpaceOnUse" x1="514.3241" y1="536.4572" x2="514.3241" y2="633.7123">
		<stop  offset="0.335" style="stop-color:#FB953D"/>
		<stop  offset="1" style="stop-color:#FB953D"/>
	</linearGradient>
	<path style="fill:url(#SVGID_00000084517723604526804790000000301052586693748110_);" d="M467.43,586.14
		c0-25.87,21.11-46.98,46.87-46.98c25.81,0,46.92,21.11,46.92,46.98c0,25.7-21.11,46.75-46.98,46.75
		C488.54,632.89,467.43,611.84,467.43,586.14z M550.8,586.08c0-20.09-16.41-36.57-36.56-36.57c-20.04,0-36.4,16.47-36.4,36.57
		c0,20.04,16.36,36.4,36.4,36.4C534.39,622.48,550.8,606.12,550.8,586.08z"/>
	
		<linearGradient id="SVGID_00000088129024419536484870000007708325183422617779_" gradientUnits="userSpaceOnUse" x1="603.1529" y1="536.4572" x2="603.1529" y2="633.7123">
		<stop  offset="0.335" style="stop-color:#FB953D"/>
		<stop  offset="1" style="stop-color:#FB953D"/>
	</linearGradient>
	<path style="fill:url(#SVGID_00000088129024419536484870000007708325183422617779_);" d="M630.66,621.46v10.25h-55.02v-91.24h10.3
		v81H630.66z"/>
	
		<linearGradient id="SVGID_00000026851429393235965610000016539651063985512588_" gradientUnits="userSpaceOnUse" x1="679.1376" y1="536.4572" x2="679.1376" y2="633.7123">
		<stop  offset="0.335" style="stop-color:#FB953D"/>
		<stop  offset="1" style="stop-color:#FB953D"/>
	</linearGradient>
	<path style="fill:url(#SVGID_00000026851429393235965610000016539651063985512588_);" d="M715.11,586.14
		c0,27.85-18.11,45.57-46.53,45.57h-25.41v-91.24l25.41-0.06C697,540.4,715.11,558.18,715.11,586.14z M704.75,586.14
		c0-21.57-14.15-35.49-36.23-35.49h-15.06v70.76h15.23C690.66,621.4,704.75,607.59,704.75,586.14z"/>
	<g>
		
			<linearGradient id="SVGID_00000010277942995310395500000008965724655822849943_" gradientUnits="userSpaceOnUse" x1="760.8635" y1="533.1258" x2="760.8635" y2="625.7295">
			<stop  offset="0.269" style="stop-color:#6189E4"/>
			<stop  offset="1" style="stop-color:#6189E4"/>
		</linearGradient>
		<path style="fill:url(#SVGID_00000010277942995310395500000008965724655822849943_);" d="M792.19,603.86
			c0,14.43-11.43,27.85-28.87,27.85h-33.79v-91.24h24.9c15.23,0,26.21,10.76,26.21,22.75c0,9.91-7.19,17.09-11.83,17.09
			C780.53,580.31,792.19,590.1,792.19,603.86z M739.78,550.48v27.62h15.17c9.91,0.06,16.02-6,16.02-13.7
			c0-7.81-7.3-13.93-15.96-13.93H739.78z M782.12,603.18c0-8.55-8.09-15.96-20.15-15.9h-22.19v34.36h22.7
			C772.89,621.63,782.12,613.76,782.12,603.18z"/>
		
			<linearGradient id="SVGID_00000048483447215903615640000016900257837783450508_" gradientUnits="userSpaceOnUse" x1="809.8466" y1="533.1258" x2="809.8466" y2="625.7295">
			<stop  offset="0.269" style="stop-color:#6189E4"/>
			<stop  offset="1" style="stop-color:#6189E4"/>
		</linearGradient>
		<path style="fill:url(#SVGID_00000048483447215903615640000016900257837783450508_);" d="M804.7,540.46H815v91.24h-10.3V540.46z"
			/>
		
			<linearGradient id="SVGID_00000042706020598624767380000009004237487516775041_" gradientUnits="userSpaceOnUse" x1="859.1439" y1="533.1258" x2="859.1439" y2="625.7295">
			<stop  offset="0.269" style="stop-color:#6189E4"/>
			<stop  offset="1" style="stop-color:#6189E4"/>
		</linearGradient>
		<path style="fill:url(#SVGID_00000042706020598624767380000009004237487516775041_);" d="M890.79,550.65h-26.43v81.06h-10.3
			v-81.06H827.5v-10.19h63.28V550.65z"/>
	</g>
	<g>
		
			<linearGradient id="SVGID_00000033361556116144120190000009943992595725871804_" gradientUnits="userSpaceOnUse" x1="452.0959" y1="657.3404" x2="452.0959" y2="707.6552">
			<stop  offset="0.1168" style="stop-color:#5B89E7"/>
			<stop  offset="1" style="stop-color:#5B89E7"/>
		</linearGradient>
		<path style="fill:url(#SVGID_00000033361556116144120190000009943992595725871804_);" d="M435.41,688.63l4.19-3.08
			c2.19,4.13,7.13,6.89,12.24,6.89c6.32,0,11.47-3.41,11.47-8.17c0-5.42-6.92-8.02-13.08-10.36c-5.93-2.31-12.54-5.21-12.54-12.66
			c0-7.42,6.68-12.96,15.15-12.96c7.15,0,12.03,3.92,13.83,8.68l-4.1,2.75c-1.56-3.62-5.45-6.08-9.79-6.08
			c-5.18,0-9.61,3.41-9.61,7.73c0,4.67,5.3,6.38,11.53,8.77c7.25,2.94,14.1,6.29,14.1,14.04c0,8.32-7.69,13.74-16.98,13.74
			C443.88,697.91,437.71,693.78,435.41,688.63z"/>
		
			<linearGradient id="SVGID_00000013874983441754971230000001096478153622914203_" gradientUnits="userSpaceOnUse" x1="498.1517" y1="657.3404" x2="498.1517" y2="707.6552">
			<stop  offset="0.1168" style="stop-color:#5B89E7"/>
			<stop  offset="1" style="stop-color:#5B89E7"/>
		</linearGradient>
		<path style="fill:url(#SVGID_00000013874983441754971230000001096478153622914203_);" d="M473.35,673.15
			c0-13.68,11.17-24.85,24.79-24.85c13.65,0,24.82,11.17,24.82,24.85c0,13.59-11.17,24.73-24.85,24.73
			C484.52,697.88,473.35,686.75,473.35,673.15z M517.45,673.12c0-10.63-8.68-19.34-19.34-19.34c-10.6,0-19.25,8.71-19.25,19.34
			c0,10.6,8.65,19.25,19.25,19.25C508.76,692.38,517.45,683.72,517.45,673.12z"/>
		
			<linearGradient id="SVGID_00000128486789907965672820000002663559024721540279_" gradientUnits="userSpaceOnUse" x1="545.1162" y1="657.3404" x2="545.1162" y2="707.6552">
			<stop  offset="0.1168" style="stop-color:#5B89E7"/>
			<stop  offset="1" style="stop-color:#5B89E7"/>
		</linearGradient>
		<path style="fill:url(#SVGID_00000128486789907965672820000002663559024721540279_);" d="M559.66,691.84v5.42h-29.1V649h5.45
			v42.84H559.66z"/>
		
			<linearGradient id="SVGID_00000157279216492259605220000007725207572582181282_" gradientUnits="userSpaceOnUse" x1="583.6306" y1="657.3404" x2="583.6306" y2="707.6552">
			<stop  offset="0.1168" style="stop-color:#5B89E7"/>
			<stop  offset="1" style="stop-color:#5B89E7"/>
		</linearGradient>
		<path style="fill:url(#SVGID_00000157279216492259605220000007725207572582181282_);" d="M565.76,678.51V649h5.48v29.49
			c0,8.11,5.27,14.01,12.39,14.01c7.12,0,12.39-5.93,12.39-14.01V649h5.48v29.52c0,11.26-7.6,19.49-17.87,19.49
			C573.39,698,565.76,689.77,565.76,678.51z"/>
		
			<linearGradient id="SVGID_00000047033068760078209730000011868641042625109693_" gradientUnits="userSpaceOnUse" x1="624.3275" y1="657.3404" x2="624.3275" y2="707.6552">
			<stop  offset="0.1168" style="stop-color:#5B89E7"/>
			<stop  offset="1" style="stop-color:#5B89E7"/>
		</linearGradient>
		<path style="fill:url(#SVGID_00000047033068760078209730000011868641042625109693_);" d="M641.06,654.38h-13.98v42.87h-5.45
			v-42.87h-14.04V649h33.47V654.38z"/>
		
			<linearGradient id="SVGID_00000062891854943784467930000015275225537331911049_" gradientUnits="userSpaceOnUse" x1="650.3879" y1="657.3404" x2="650.3879" y2="707.6552">
			<stop  offset="0.1168" style="stop-color:#5B89E7"/>
			<stop  offset="1" style="stop-color:#5B89E7"/>
		</linearGradient>
		<path style="fill:url(#SVGID_00000062891854943784467930000015275225537331911049_);" d="M647.66,649h5.45v48.26h-5.45V649z"/>
		
			<linearGradient id="SVGID_00000139983560642541122840000001027706334177896106_" gradientUnits="userSpaceOnUse" x1="685.5414" y1="657.3404" x2="685.5414" y2="707.6552">
			<stop  offset="0.1168" style="stop-color:#5B89E7"/>
			<stop  offset="1" style="stop-color:#5B89E7"/>
		</linearGradient>
		<path style="fill:url(#SVGID_00000139983560642541122840000001027706334177896106_);" d="M660.74,673.15
			c0-13.68,11.17-24.85,24.79-24.85c13.65,0,24.82,11.17,24.82,24.85c0,13.59-11.17,24.73-24.85,24.73
			C671.91,697.88,660.74,686.75,660.74,673.15z M704.84,673.12c0-10.63-8.68-19.34-19.34-19.34c-10.6,0-19.25,8.71-19.25,19.34
			c0,10.6,8.65,19.25,19.25,19.25C696.15,692.38,704.84,683.72,704.84,673.12z"/>
		
			<linearGradient id="SVGID_00000152230784528363328740000001680851408230636160_" gradientUnits="userSpaceOnUse" x1="737.3561" y1="657.3404" x2="737.3561" y2="707.6552">
			<stop  offset="0.1168" style="stop-color:#5B89E7"/>
			<stop  offset="1" style="stop-color:#5B89E7"/>
		</linearGradient>
		<path style="fill:url(#SVGID_00000152230784528363328740000001680851408230636160_);" d="M756.75,648.87V698h-0.27l-33.08-36.73
			v36.04h-5.45v-49.07h0.3l33.05,36.7v-36.08H756.75z"/>
		
			<linearGradient id="SVGID_00000128487528353886602510000008140255580336585112_" gradientUnits="userSpaceOnUse" x1="780.5498" y1="657.3404" x2="780.5498" y2="707.6552">
			<stop  offset="0.1168" style="stop-color:#5B89E7"/>
			<stop  offset="1" style="stop-color:#5B89E7"/>
		</linearGradient>
		<path style="fill:url(#SVGID_00000128487528353886602510000008140255580336585112_);" d="M763.86,688.63l4.19-3.08
			c2.18,4.13,7.12,6.89,12.24,6.89c6.32,0,11.47-3.41,11.47-8.17c0-5.42-6.92-8.02-13.08-10.36c-5.93-2.31-12.54-5.21-12.54-12.66
			c0-7.42,6.67-12.96,15.15-12.96c7.15,0,12.03,3.92,13.83,8.68l-4.1,2.75c-1.56-3.62-5.45-6.08-9.79-6.08
			c-5.18,0-9.61,3.41-9.61,7.73c0,4.67,5.3,6.38,11.53,8.77c7.25,2.94,14.1,6.29,14.1,14.04c0,8.32-7.69,13.74-16.98,13.74
			C772.33,697.91,766.17,693.78,763.86,688.63z"/>
	</g>
</g>
<linearGradient id="SVGID_00000052822353248403214020000016973283903931727550_" gradientUnits="userSpaceOnUse" x1="132.7439" y1="373.2669" x2="132.7439" y2="373.2669">
	<stop  offset="0.5282" style="stop-color:#FB953D"/>
	<stop  offset="0.5685" style="stop-color:#6188E4"/>
	<stop  offset="0.8223" style="stop-color:#6188E4"/>
	<stop  offset="1" style="stop-color:#72D1EE"/>
</linearGradient>
<path style="fill:url(#SVGID_00000052822353248403214020000016973283903931727550_);" d="M132.74,373.27"/>
<linearGradient id="SVGID_00000118386099864409723020000000955089798950005908_" gradientUnits="userSpaceOnUse" x1="517.3698" y1="303.9335" x2="637.3209" y2="320.0463">
	<stop  offset="0.5787" style="stop-color:#FB953D"/>
	<stop  offset="1" style="stop-color:#FB953D"/>
</linearGradient>
<path style="fill:url(#SVGID_00000118386099864409723020000000955089798950005908_);" d="M686.08,113.34l-69.93,297.22l-22.42,95.22
	l-23.71,18.48l24.37-103.59l60.53-257.29c0.02-0.02,0.02-0.04,0.02-0.04l-12.76,10.8l-39.68,33.61l-14.57-11.77l61.27-51.59
	L686.08,113.34z"/>
<linearGradient id="SVGID_00000165235960355776632990000007018818872693987988_" gradientUnits="userSpaceOnUse" x1="587.6284" y1="307.4584" x2="698.4242" y2="340.1805">
	<stop  offset="0.467" style="stop-color:#FB953D"/>
	<stop  offset="0.6802" style="stop-color:#FB953D"/>
</linearGradient>
<path style="fill:url(#SVGID_00000165235960355776632990000007018818872693987988_);" d="M521.6,335.87l8.55,16.81l48.16-24.49
	l-33.19,139.27l-81.09-148.23l190.96-155.89l-59.71,253.77c5.56-6.29,13.5-9.52,21.66-9.73l69.18-294.04L435.44,318.37L550.3,519.64
	l54.56-226.11L521.6,335.87z"/>
<defs>
	<filter id="Adobe_OpacityMaskFilter" filterUnits="userSpaceOnUse" x="608.55" y="118.1" width="218.95" height="376.13">
		<feColorMatrix  type="matrix" values="1 0 0 0 0  0 1 0 0 0  0 0 1 0 0  0 0 0 1 0"/>
	</filter>
</defs>
<mask maskUnits="userSpaceOnUse" x="608.55" y="118.1" width="218.95" height="376.13" id="SVGID_00000174574645738969356300000001019464586543857560_">
	<g class="st23">
		
			<linearGradient id="SVGID_00000146462668220945069730000014821843338324360617_" gradientUnits="userSpaceOnUse" x1="711.327" y1="324.4817" x2="559.1503" y2="361.1832">
			<stop  offset="0" style="stop-color:#FFFFFF"/>
			<stop  offset="1" style="stop-color:#231F20;stop-opacity:0"/>
		</linearGradient>
		
			<rect x="583.23" y="102.04" style="fill:url(#SVGID_00000146462668220945069730000014821843338324360617_);" width="271.9" height="441.09"/>
	</g>
</mask>
<linearGradient id="SVGID_00000122685378907189244730000011808536795932454040_" gradientUnits="userSpaceOnUse" x1="584.295" y1="284.8352" x2="713.869" y2="323.1031">
	<stop  offset="0" style="stop-color:#FB953D"/>
	<stop  offset="0.467" style="stop-color:#FB953D"/>
	<stop  offset="0.5178" style="stop-color:#6188E4"/>
	<stop  offset="0.7513" style="stop-color:#6188E4"/>
</linearGradient>
<path style="mask:url(#SVGID_00000174574645738969356300000001019464586543857560_);fill:url(#SVGID_00000122685378907189244730000011808536795932454040_);" d="
	M704.48,118.1l-66.69,295.46l117.82-92.03l-31.04-21.58l20.57-23.04l-30.37-35.63l-14.35,12.23l19.7,23.11l-23.8,26.65l27.53,19.14
	l-56.1,43.83l44.98-198.83l88.3,152.92L614.5,465.69c-1.57,9.57-3.67,19.08-5.95,28.54L827.5,323.61L704.48,118.1z"/>
</svg>
